# xmcd
#
# Track frame offsets: 
#        150
#        44714
#        74300
#        95559
#        159132
#
# Disc length: 2536 seconds
#
# Revision: 2
# Processed by: cddbd v1.5.2PL0 Copyright (c) Steve Scherf et al.
# Submitted via: ExactAudioCopy v0.95b4
#
DISCID=3c09e605
DTITLE=Zbigniew Namyslowski - Winobranie - The Best of Polish Jazz
DYEAR=1973
DGENRE=Jazz
TTITLE0=Winobranie - Jak nie ma szmalu to jest laz
TTITLE1=Nie mniej niz 5%
TTITLE2=Gogoszary
TTITLE3=Pierwsza przymiarka - Ballada na grzedzie - Misie
TTITLE4=Taj Mahal - Winobranie
EXTD=YEAR: 1973
EXTT0=
EXTT1=
EXTT2=
EXTT3=
EXTT4=
PLAYORDER=
